static_grf.mot
version=1
nRows=15
nColumns 19
inDegrees=yes
endheader
time	1_ground_force_vx	1_ground_force_vy	1_ground_force_vz	1_ground_force_px	1_ground_force_py	1_ground_force_pz	1_ground_torque_x	1_ground_torque_y	1_ground_torque_z	2_ground_force_vx	2_ground_force_vy	2_ground_force_vz	2_ground_force_px	2_ground_force_py	2_ground_force_pz	2_ground_torque_x	2_ground_torque_y	2_ground_torque_z
            0.005000	           -5.990888	          399.272815	          -36.930750	           -0.258572	            0.005896	           -0.330164	           -0.009382	            0.625287	           -0.057836	            2.935641	          450.305982	           40.086278	           -0.275351	            0.005451	           -0.686878	            0.002893	            0.443804	            0.039507
            0.005500	           -5.670118	          399.993940	          -36.928454	           -0.258468	            0.005894	           -0.329749	           -0.010230	            0.721702	           -0.066629	            2.702097	          450.120660	           40.179577	           -0.275534	            0.005450	           -0.686860	            0.002577	            0.429213	            0.038313
            0.006000	           -5.899968	          400.355410	          -37.155615	           -0.258111	            0.005896	           -0.330034	           -0.009558	            0.648589	           -0.060193	            2.888147	          450.489786	           40.133883	           -0.275250	            0.005452	           -0.686938	            0.002843	            0.443377	            0.039500
            0.006500	           -5.669597	          399.632622	          -36.746576	           -0.258225	            0.005896	           -0.330077	           -0.009358	            0.659641	           -0.060655	            2.797188	          449.752154	           40.319007	           -0.275193	            0.005451	           -0.686615	            0.002680	            0.430936	            0.038632
            0.007000	           -5.761981	          399.093214	          -37.069655	           -0.258321	            0.005897	           -0.330307	           -0.009174	            0.635448	           -0.059023	            2.702638	          449.937524	           39.897351	           -0.275291	            0.005451	           -0.686760	            0.002307	            0.384105	            0.034060
            0.007500	           -5.578430	          398.732522	          -37.025804	           -0.258401	            0.005897	           -0.330277	           -0.009889	            0.706858	           -0.065638	            2.842688	          450.120833	           40.273374	           -0.275116	            0.005452	           -0.686902	            0.002718	            0.430330	            0.038503
            0.008000	           -5.670283	          400.895299	          -36.924589	           -0.258282	            0.005894	           -0.329767	           -0.009581	            0.677405	           -0.062393	            2.704009	          449.568847	           39.989893	           -0.275418	            0.005450	           -0.686764	            0.002541	            0.422475	            0.037580
            0.008500	           -5.762245	          400.535339	          -37.063472	           -0.258230	            0.005895	           -0.329848	           -0.009129	            0.634538	           -0.058717	            2.608335	          450.120824	           40.038833	           -0.275319	            0.005451	           -0.686861	            0.002322	            0.400622	            0.035636
            0.009000	           -5.487609	          400.355883	          -37.248351	           -0.258205	            0.005895	           -0.329901	           -0.009026	            0.658481	           -0.061264	            2.700829	          450.488440	           40.321675	           -0.275278	            0.005452	           -0.687065	            0.002205	            0.367761	            0.032917
            0.009500	           -5.853784	          400.354829	          -37.018165	           -0.258155	            0.005895	           -0.329831	           -0.009390	            0.642224	           -0.059382	            2.701350	          450.305470	           39.992522	           -0.275221	            0.005451	           -0.686837	            0.002525	            0.420885	            0.037380
            0.010000	           -5.853799	          399.814259	          -37.066336	           -0.258337	            0.005895	           -0.329841	           -0.008980	            0.613357	           -0.056864	            2.562794	          449.752480	           39.990610	           -0.274952	            0.005451	           -0.686531	            0.002783	            0.488379	            0.043425
            0.010500	           -5.899139	          400.173799	          -36.835400	           -0.258172	            0.005895	           -0.329845	           -0.009494	            0.644012	           -0.059280	            2.700144	          450.672748	           40.275404	           -0.275225	            0.005452	           -0.686916	            0.002394	            0.399554	            0.035707
            0.011000	           -5.945515	          398.733041	          -37.162458	           -0.258545	            0.005897	           -0.330386	           -0.009840	            0.659947	           -0.061508	            2.749509	          449.937526	           39.944260	           -0.275091	            0.005452	           -0.686842	            0.002631	            0.430501	            0.038219
            0.011500	           -5.807549	          399.453147	          -36.930432	           -0.258345	            0.005897	           -0.330272	           -0.009558	            0.657432	           -0.060781	            2.606986	          450.489273	           39.993219	           -0.274997	            0.005453	           -0.686939	            0.002513	            0.434221	            0.038549
            0.012000	           -5.716354	          400.895683	          -37.016187	           -0.258337	            0.005894	           -0.329776	           -0.009409	            0.659885	           -0.060930	            2.609041	          449.936349	           40.132032	           -0.275204	            0.005451	           -0.686802	            0.002105	            0.362958	            0.032374
